<?xml version="1.0" encoding="UTF-8" standalone="no"?>
<svg
   xmlns:dc="http://purl.org/dc/elements/1.1/"
   xmlns:cc="http://creativecommons.org/ns#"
   xmlns:rdf="http://www.w3.org/1999/02/22-rdf-syntax-ns#"
   xmlns:svg="http://www.w3.org/2000/svg"
   xmlns="http://www.w3.org/2000/svg"
   xmlns:xlink="http://www.w3.org/1999/xlink"
   height="48"
   width="48"
   xml:space="preserve"
   viewBox="0 0 47.999999 47.999999"
   y="0px"
   x="0px"
   id="Capa_1"
   version="1.1"><metadata
   id="metadata49"><rdf:RDF><cc:Work
       rdf:about=""><dc:format>image/svg+xml</dc:format><dc:type
         rdf:resource="http://purl.org/dc/dcmitype/StillImage" /><dc:title></dc:title></cc:Work></rdf:RDF></metadata><defs
   id="defs47"><color-profile
     id="color-profile901"
     xlink:href="/usr/share/color/icc/colord/sRGB.icc"
     name="sRGB" /></defs>

















<path
   id="rect54"
   d="M 0 0 L 0 48 L 48 48 L 48 0 L 0 0 z M 27.242188 9.0097656 C 27.909158 8.9645656 28.590709 9.0610938 29.238281 9.3085938 C 30.811231 9.9098037 33.085338 11.025828 34.992188 12.923828 C 36.905838 14.828388 38.053748 17.126893 38.679688 18.720703 C 39.360907 20.455363 38.948293 22.427058 37.626953 23.742188 L 32.96875 28.378906 C 31.61664 29.724626 29.600574 30.119666 27.833984 29.384766 C 26.988484 29.033106 26.169258 28.613725 25.398438 28.140625 C 24.846687 27.801985 24.673079 27.081047 25.011719 26.529297 C 25.350369 25.977557 26.07332 25.803938 26.625 26.142578 C 27.29197 26.551968 28.001355 26.915813 28.734375 27.220703 C 29.623185 27.590343 30.636053 27.391917 31.314453 26.716797 L 35.972656 22.080078 C 36.631246 21.424588 36.837447 20.442495 36.498047 19.578125 C 35.954147 18.193195 34.965374 16.201824 33.339844 14.583984 C 31.724234 12.975864 29.761421 12.02021 28.400391 11.5 C 27.533741 11.16886 26.549768 11.37723 25.892578 12.03125 L 21.289062 16.611328 C 20.609012 17.288208 20.412068 18.327446 20.798828 19.197266 C 21.128508 19.938846 21.501983 20.654669 21.908203 21.324219 C 22.188303 21.785939 22.116265 22.379819 21.734375 22.761719 L 11.339844 33.15625 L 11.339844 36.65625 L 14.154297 36.65625 L 14.154297 34.544922 C 14.154297 33.897522 14.678772 33.373047 15.326172 33.373047 L 17.435547 33.373047 L 17.435547 31.263672 C 17.435547 30.616272 17.960022 30.091797 18.607422 30.091797 L 21.890625 30.091797 C 22.538015 30.091797 23.0625 30.616272 23.0625 31.263672 C 23.0625 31.911062 22.538015 32.435547 21.890625 32.435547 L 19.779297 32.435547 L 19.779297 34.544922 C 19.779297 35.192322 19.254812 35.71875 18.607422 35.71875 L 16.498047 35.71875 L 16.498047 37.828125 C 16.498047 38.475525 15.973562 39 15.326172 39 L 10.167969 39 C 9.5205785 39 8.9960938 38.475525 8.9960938 37.828125 L 8.9960938 32.669922 C 8.9960937 32.359002 9.1200038 32.061637 9.3398438 31.841797 L 19.441406 21.738281 C 19.160666 21.224751 18.89784 20.693811 18.65625 20.150391 C 17.87716 18.398271 18.270286 16.309212 19.634766 14.951172 L 24.238281 10.369141 C 25.056975 9.5542904 26.130569 9.085099 27.242188 9.0097656 z M 30.330078 15.330078 A 1.875492 1.875492 0 0 1 32.205078 17.205078 A 1.875492 1.875492 0 0 1 30.330078 19.080078 A 1.875492 1.875492 0 0 1 28.455078 17.205078 A 1.875492 1.875492 0 0 1 30.330078 15.330078 z "
   style="fill:#3d4c53;fill-opacity:1;stroke:none;stroke-width:0.99858564;stroke-opacity:0.3254902" /></svg>