<?xml version="1.0" encoding="UTF-8" standalone="no"?>
<svg
   xmlns:dc="http://purl.org/dc/elements/1.1/"
   xmlns:cc="http://creativecommons.org/ns#"
   xmlns:rdf="http://www.w3.org/1999/02/22-rdf-syntax-ns#"
   xmlns:svg="http://www.w3.org/2000/svg"
   xmlns="http://www.w3.org/2000/svg"
   xmlns:xlink="http://www.w3.org/1999/xlink"
   height="48"
   width="48"
   xml:space="preserve"
   viewBox="0 0 48 48"
   y="0px"
   x="0px"
   id="Capa_1"
   version="1.1"><metadata
   id="metadata49"><rdf:RDF><cc:Work
       rdf:about=""><dc:format>image/svg+xml</dc:format><dc:type
         rdf:resource="http://purl.org/dc/dcmitype/StillImage" /><dc:title></dc:title></cc:Work></rdf:RDF></metadata><defs
   id="defs47"><color-profile
     id="color-profile901"
     xlink:href="/usr/share/color/icc/colord/sRGB.icc"
     name="sRGB" /></defs>
















<path
   id="rect54"
   d="M 0 0 L 0 48 L 48 48 L 48 0 L 0 0 z M 24 9 C 28.39401 9 31.96875 12.5748 31.96875 16.96875 C 31.96875 19.57436 30.712958 21.892766 28.773438 23.347656 C 28.969728 23.412336 29.163412 23.479834 29.357422 23.552734 C 29.963352 23.780254 30.270489 24.45664 30.042969 25.0625 C 29.815449 25.66844 29.141016 25.973734 28.535156 25.746094 C 27.181226 25.237674 25.758974 24.964841 24.302734 24.931641 C 24.202654 24.934641 24.1009 24.9375 24 24.9375 C 23.89998 24.9375 23.800372 24.935641 23.701172 24.931641 C 17.745932 25.070161 12.588024 29.338214 11.371094 35.183594 C 11.295094 35.548574 11.385471 35.923477 11.619141 36.210938 C 11.754491 36.377398 12.056371 36.65625 12.556641 36.65625 L 16.705078 36.65625 C 17.352308 36.65625 17.876953 37.180895 17.876953 37.828125 C 17.876953 38.475355 17.352308 39 16.705078 39 L 12.556641 39 C 11.482681 39 10.478121 38.522423 9.8007812 37.689453 C 9.1199813 36.852383 8.8557419 35.765591 9.0761719 34.707031 C 9.7794719 31.328691 11.642646 28.252958 14.322266 26.048828 C 15.783706 24.846718 17.454825 23.937382 19.234375 23.351562 C 17.291935 21.896913 16.03125 19.5767 16.03125 16.96875 C 16.03125 12.5748 19.60599 9 24 9 z M 24 11.34375 C 20.89834 11.34375 18.375 13.86708 18.375 16.96875 C 18.375 19.97825 20.752043 22.442148 23.726562 22.585938 C 23.818083 22.583938 23.9084 22.583984 24 22.583984 C 24.09141 22.583984 24.182237 22.583938 24.273438 22.585938 C 27.248368 22.442558 29.625 19.97854 29.625 16.96875 C 29.625 13.86708 27.10167 11.34375 24 11.34375 z M 31.558594 27.339844 L 31.566406 27.339844 L 35.222656 27.339844 C 36.472516 27.342714 37.601896 28.069326 38.103516 29.191406 L 38.101562 29.191406 C 38.508733 30.102306 38.996 31.526029 39 33.130859 C 39.00381 34.740079 38.522188 36.184511 38.117188 37.113281 C 37.617208 38.260021 36.485415 38.99994 35.234375 39 L 35.228516 39 L 31.529297 39 C 30.246797 38.99701 29.101505 38.22446 28.609375 37.03125 C 28.425215 36.58477 28.268812 36.091747 28.132812 35.523438 C 27.982173 34.894028 28.37052 34.260025 29 34.109375 C 29.62918 33.958785 30.261469 34.347152 30.412109 34.976562 C 30.519399 35.424872 30.638341 35.804429 30.775391 36.136719 C 30.903121 36.446389 31.20705 36.65549 31.53125 36.65625 L 35.230469 36.65625 L 35.232422 36.65625 C 35.553582 36.65625 35.8416 36.467461 35.96875 36.175781 C 36.28416 35.452551 36.65925 34.337636 36.65625 33.134766 C 36.65343 31.940736 36.277481 30.852267 35.962891 30.148438 C 35.835091 29.862557 35.55016 29.684364 35.21875 29.683594 L 31.564453 29.683594 L 31.5625 29.683594 C 31.21428 29.683594 30.929836 29.867029 30.816406 30.162109 C 30.644366 30.609589 30.524487 30.982011 30.429688 31.369141 C 30.301318 31.893491 29.830896 32.261719 29.291016 32.261719 L 21.236328 32.261719 L 20.365234 33.158203 L 21.269531 34.078125 L 24.585938 34.078125 C 25.233168 34.078125 25.757812 34.60277 25.757812 35.25 C 25.757812 35.89723 25.233168 36.421875 24.585938 36.421875 L 20.777344 36.421875 C 20.463044 36.421875 20.161716 36.294492 19.941406 36.070312 L 17.890625 33.984375 C 17.444475 33.530455 17.443339 32.804336 17.886719 32.347656 L 19.898438 30.273438 C 20.119168 30.046148 20.423414 29.917969 20.740234 29.917969 L 28.412109 29.917969 C 28.490679 29.682709 28.567306 29.480512 28.628906 29.320312 C 29.091736 28.116383 30.240234 27.339844 31.558594 27.339844 z M 34.253906 31.96875 A 1.171877 1.171877 0 0 1 35.425781 33.140625 A 1.171877 1.171877 0 0 1 34.253906 34.3125 A 1.171877 1.171877 0 0 1 33.082031 33.140625 A 1.171877 1.171877 0 0 1 34.253906 31.96875 z "
   style="fill:#3d4c53;fill-opacity:1;stroke:none;stroke-width:0.99754906;stroke-opacity:0.3254902" /></svg>